<?xml version="1.0" standalone="no"?><!DOCTYPE svg PUBLIC "-//W3C//DTD SVG 1.1//EN" "http://www.w3.org/Graphics/SVG/1.1/DTD/svg11.dtd"><svg t="1776852616957" class="icon" viewBox="0 0 1024 1024" version="1.1" xmlns="http://www.w3.org/2000/svg" p-id="24042" xmlns:xlink="http://www.w3.org/1999/xlink" width="128" height="128"><path d="M709.8 246.3c0-40.1 9.3-76.8 24.8-105.7 3.8-7.1 0.9-16-6.3-19.6l-93.9-46.7c-14.5 44.6-36.5 99-69.8 134.3L512 256.9l-53.3-49.2c-32.9-35-54.8-89.2-69.2-133.4L295.6 121c-7.3 3.6-10.2 12.5-6.3 19.6 15.5 28.8 24.8 65.6 24.8 105.7 0 69.9-28.3 129.8-68.6 154.9v520l167.3 23.1c65.8 9.1 132.5 9.1 198.3 0l167.3-23.1v-520c-40.2-25.1-68.6-85-68.6-154.9z" fill="#C92B2B" p-id="24043"></path><path d="M512 955c-33.3 0-66.6-2.3-99.7-6.9l-170.5-23.6V399.1l1.8-1.1c40.6-25.3 66.8-84.9 66.8-151.7 0-37.8-8.7-74.7-24.4-103.9-2.3-4.3-2.8-9.3-1.3-14 1.5-4.7 4.8-8.6 9.3-10.8L391.7 69l1.4 4.1c20 61 42.3 104.2 68.3 131.9l50.7 46.8 50.1-45.9C588.5 178 611 134.6 631 73.2l1.4-4.2 97.8 48.7c4.5 2.2 7.8 6.1 9.3 10.8 1.5 4.7 1 9.7-1.3 14-15.7 29.2-24.4 66.1-24.4 103.9 0 66.9 26.2 126.4 66.8 151.7l1.8 1.1v525.4l-170.5 23.6c-33.3 4.5-66.6 6.8-99.9 6.8z m-262.7-37l164 22.7c65.5 9.1 131.8 9.1 197.3 0l164-22.7V403.3c-41.7-27.2-68.6-88.5-68.6-157 0-39 9-77.2 25.3-107.5 1.4-2.5 1.6-5.4 0.8-8.1-0.9-2.8-2.8-5-5.4-6.3l-90-44.8C616.6 140 594 183.1 567.5 211.2l-0.2 0.2-55.3 50.7-56.1-51.8c-26.2-27.9-48.7-70.7-68.7-130.6l-90 44.7c-2.6 1.3-4.5 3.6-5.4 6.3-0.9 2.7-0.6 5.6 0.8 8.1 16.3 30.3 25.3 68.4 25.3 107.5 0 68.4-26.9 129.7-68.6 157V918z" p-id="24044"></path><path d="M632.8 79.5C601.3 91.1 559.6 98.1 514 98.1c-47.8 0-91.2-7.7-123.3-20.3 14.4 43.5 36 95.8 68 129.9l53.3 49.2 52.7-48.4c32-33.8 53.5-85.5 68.1-129z" fill="#750707" p-id="24045"></path><path d="M512 262.1l-56.1-51.8C429.5 182.2 407 139.3 387 79l-2.5-7.6 7.5 2.9c33 12.9 76.3 20.1 121.9 20.1 43.5 0 85.3-6.5 117.5-18.4l7.4-2.7-2.5 7.4c-20 59.9-42.5 102.5-68.9 130.5l-0.2 0.2-55.2 50.7zM461.3 205l50.7 46.8 50.1-45.9c24.5-26 45.6-65.4 64.6-120.3-32 10.5-71.6 16.3-112.8 16.3-43.2 0-84.4-6.3-117.2-17.8 19 55.2 40.2 94.8 64.6 120.9z" p-id="24046"></path><path d="M560.9 548.1c-2.6 9.5-14.2 16.7-28 16.7-1.2 0-2.3-0.1-3.5-0.2v33.8h18v92.3h-21.7V717h66.5v-26.3H575V548.1h-14.1z" fill="#FFFFFF" p-id="24047"></path><path d="M596 720.9h-74v-33.8h21.7v-84.8h-18v-41.7l4.1 0.4c1 0.1 2.1 0.1 3.2 0.1 11.9 0 22.2-5.9 24.4-13.9l0.8-2.8h20.7v142.7H596v33.8z m-66.4-7.5h58.9v-18.8h-17.2V551.9h-7.7c-4.3 9.9-16.3 16.6-30.4 16.7v26.1h18v99.9h-21.7v18.8z" p-id="24048"></path><path d="M466.9 548.1c-2.6 9.5-14.2 16.7-28 16.7-1.2 0-2.3-0.1-3.5-0.2v33.8h18v92.3h-21.7V717h66.5v-26.3H481V548.1h-14.1z" fill="#FFFFFF" p-id="24049"></path><path d="M502 720.9h-74v-33.8h21.7v-84.8h-18v-41.7l4.1 0.4c1 0.1 2.1 0.1 3.2 0.1 11.9 0 22.2-5.9 24.4-13.9l0.8-2.8H485v142.7h17v33.8z m-66.5-7.5h58.9v-18.8h-17.2V551.9h-7.7c-4.3 9.9-16.3 16.6-30.4 16.7v26.1h18v99.9h-21.7v18.8z" p-id="24050"></path><path d="M382.1 447.4c-5-17.5-22.1-14.1-22.1-14.1s11-9.5 12.2-13.7c1.1-4.2 4.6-32.8-12.9-43.8-6.5-3.4-20.9 3.8-20.9 3.8l-27.2 11.7 3.6 16.2 9.1-1.5 18.7 73.4-8 3.8 3 14.5s32.8-10.7 36.6-13.7c3.7-3 12.5-15.2 7.9-36.6z m-47.6-49s18.8-10.2 25.4 3.6c9.9 23.9-16 27.9-16 27.9l-9.4-31.5z m21.1 78.3l-6.6-32.2s16-7.5 21.4 6.8c7.7 24.6-14.8 25.4-14.8 25.4z" fill="#FFFFFF" p-id="24051"></path><path d="M335.7 501l-4-19.1 7.9-3.8-17.6-69.2-9.2 1.5-4.5-20.6 29.1-12.5c1.5-0.7 15.7-7.6 23.1-3.7 8.1 5.1 13.2 14.2 14.8 26.4 1.2 9.2 0.1 17.7-0.6 20.3-0.8 2.8-4.7 7.1-8 10.4 6.8 0.9 14.8 4.9 17.9 16.1v0.2c4.6 21.6-3.8 35-8.9 39.1-4 3.2-31.8 12.3-37.3 14.1l-2.7 0.8z m1.7-16.3l2.1 9.8c13.3-4.4 30.9-10.6 33.1-12.4 3.4-2.7 11.4-14.2 7.1-34-4.3-14.9-18.6-12.4-19.2-12.2l-9.3 1.8 7.1-6.2c5-4.3 10.8-10.3 11.4-12.5 1-3.8 4.1-30.9-11.9-41-3.7-2-13.3 1.4-18.5 3.9l-25.4 10.9 2.6 11.9 9.1-1.5 19.7 77.6-7.9 3.9z m16.2-5.5l-7.5-36.2 1.8-0.8c0.4-0.2 8.9-4.1 16.4-1 3.9 1.6 6.7 4.7 8.4 9.2 2.8 8.8 2.3 15.7-1.3 20.9-5.3 7.5-15.3 7.9-15.7 7.9h-2.1z m-1.7-33.1l5.7 27.8c2.6-0.5 7.1-1.9 9.7-5.6 2.7-3.8 2.9-9.3 0.6-16.3-1.2-3.1-3-5.1-5.6-6.2-3.6-1.5-8-0.5-10.4 0.3z m-9.8-13.3l-10.6-35.5 1.8-1c0.5-0.2 11.2-6 20.2-3.1 3.9 1.2 6.8 3.9 8.7 7.8 3.3 7.9 3.3 14.6 0.2 20-5.2 9.3-17.6 11.4-18.1 11.5l-2.2 0.3z m-4.5-33l8.1 27.1c3.3-0.9 9.5-3.3 12.4-8.5 2.3-4.1 2.1-9.3-0.5-15.5-1.2-2.5-3.1-4.2-5.6-5-5-1.6-11.4 0.6-14.4 1.9z" p-id="24052"></path><path d="M441.9 459.6l-22.3-79.7 7.6-1.5 0.5-18.3-39.4 5.5V384h8.4l-1.7 79.2h-3.9v13.5h18.8v-14l-5.6-0.5 0.5-18.3h19.8l5.1 15.7h-6.6v14.3l23.9-1v-13.2h-5.1z m-36.5-28.3v-41.7h6.1l11.2 41.7h-17.3z" fill="#FFFFFF" p-id="24053"></path><path d="M412.5 479.2h-23.8v-18.5h3.9l1.6-74.2h-8.4v-23.1l44.5-6.2-0.6 23.2-6.9 1.4 21.1 75.2h5.7v18.2l-28.9 1.2V457h5.7l-3.5-10.7h-15.5l-0.4 13.5 5.5 0.5v18.9z m-18.8-5.1h13.8V465l-5.7-0.5 0.6-23.1h24.1l6.7 20.7h-7.5v9.1l18.8-0.8v-8.3H440L416.4 378l8.3-1.7 0.4-13.3-34.3 4.8v13.7h8.5l-1.8 84.2h-3.8v8.4z m32.2-40.3h-23.1V387h10.5l12.6 46.8z m-18-5h11.5l-9.8-36.7H408v36.7z" p-id="24054"></path><path d="M459.2 371.8v12.7h-8.1V355H510v29.5h-7.1v-14.7h-14.3V454h5.4v14.5h-26.2l-0.5-14.6h7.9v-84.1l-16.1 0.1z" fill="#FFFFFF" p-id="24055"></path><path d="M496.5 471h-31.1l-0.8-19.6h8.1v-79.1l-11 0.1V387h-13.2v-34.5h63.9V387h-12.1v-14.7h-9.2v79.3h5.3V471z m-26.3-5h21.2v-9.4h-5.3v-89.3h19.2V382h2.1v-24.4h-53.9V382h3.1l-0.1-11.9-0.2-2.7 21.4-0.2v89.2h-7.9l0.4 9.6z" p-id="24056"></path><path d="M529.9 372.7v11.8h-8.1V355l58 5.1v29.5h-7.1v-14.8l-14-0.6-6.1 84.3h5.4V473l-26.2-2.5-0.6-12.1h8L544 373l-14.1-0.3z" fill="#FFFFFF" p-id="24057"></path><path d="M560.5 475.7l-31.1-2.9-0.8-17h8.3l4.5-80.4-8.9-0.2V387h-13.2v-34.7l63 5.5v34.3h-12.1v-14.8l-9.1-0.4-5.7 79.2h5.1v19.6z m-26.3-7.5l21.2 2V461h-5.5l6.5-89.4 18.8 0.9V387h2.1v-24.6l-53-4.6V382h3.1v-11.8l19.3 0.3-5 90.3H534l0.2 7.4z" p-id="24058"></path><path d="M593.5 363.3v18.3l7.4 2.5-12 80.1h-7.2v14.9l46.8 10.2 5.4-31.6-11.1-3.8-3.4 19.1-17.5-4.5 11-81.7 7.6 2.8 1.6-18.3z" fill="#FFFFFF" p-id="24059"></path><path d="M630.6 492.4l-51.4-11.3v-19.4h7.6l11.4-75.9-7.1-2.5V360l33.8 9.5-2 23.6-7.8-2.8-10.3 76.4 12.7 3.2 3.5-19.3 15.8 5.5-6.2 36.3zM584.2 477l42.3 9.3 4.5-26.9-6.3-2.2-3.4 18.8-22.3-5.7 11.8-87 7.5 2.7 1.1-13-23.4-6.5v13.2l7.7 2.7-12.6 84.3h-6.9V477z" p-id="24060"></path><path d="M659.8 381.4l-5.1 19.3 8.1 3.6-17.3 76.7-7.1-3.1v13.7l45.5 19.8 9.4-28.4-10.9-5.9-6.6 16.8-17.8-9.4 7.9-27.7 12.1 5.6 4.6-15-14-8.1 7.2-30.2 22.3 10.4-3.3 14.7 9.6 4.1 8.4-28.7z" fill="#FFFFFF" p-id="24061"></path><path d="M685.4 514.8l-49.5-21.6V474l7.8 3.4 16.1-71.7-8.2-3.6 6.4-24.4 57.7 30.6-9.7 33.4-14.2-6 3.3-14.8-17.7-8.2-6 25.4 14.1 8.2-6 19.6-12.1-5.6-6.5 22.9 13.5 7.1 6.6-16.8 15.3 8.2-10.9 33.1zM640.9 490l41.4 18 7.9-23.8-6.6-3.5-6.6 16.7-22-11.6 9.2-32.4 12.2 5.6 3.2-10.3-13.9-8.1 8.2-35 27 12.6-3.3 14.6 5.1 2.2 7-24-48.5-25.7-3.7 14.1 8.1 3.5-18.4 81.6-6.4-2.7v8.2z" p-id="24062"></path><path d="M757 752.6V902c0 5.6-4.1 10.4-9.7 11.2-26.9 3.8-101.7 14.3-117.7 17.4-19.7 3.7 130.5-34.2 127.4-178z" fill="#750707" p-id="24063"></path><path d="M259.8 607.4V902c0 5.6 4.1 10.4 9.7 11.2 26.9 3.8 101.7 14.3 117.7 17.4 19.7 3.7-127.4-18.8-127.4-323.2z" fill="#FFA9A9" p-id="24064"></path><path d="M633.9 120.5c-3.2 13.1-36.1 81.4-54.1 104.8-18 23.4-69.8 61.7-69.8 61.7s-55.3-49.1-78.2-77.2-48.3-101-48.3-101v-15s25.4 73 48.3 101S510 272 510 272s51.8-38.3 69.8-61.7c18-23.4 50.9-91.7 54.1-104.8" fill="#750707" p-id="24065"></path><path d="M349 109.3s-56.1 15.9-50.5 25.3c5.6 9.4 33.2 42.1 25 113.2s-4.3 84.2-12.4 91.7c12.4-9.4 35-139.2 27.5-172-7.4-32.9-4.6-49.8 10.4-58.2z" fill="#FFA9A9" p-id="24066"></path><path d="M674.5 109.3c-5.9 3.2 53.6 17.2 50.5 25.3-4 10.1-33.2 42.1-25 113.2 8.2 71.1 4.3 84.2 12.4 91.7-12.4-9.4-29.3-140-19.1-172 12.5-39.9-3.8-49.8-18.8-58.2z" fill="#FFA9A9" p-id="24067"></path><path d="M341 515.6s144.5-80.4 334.6 0c-56.8-12.8-164.8-48.1-334.6 0z" fill="#750707" p-id="24068"></path><path d="M601.1 702.8c0.5 1.9 0.8 3.8 1.2 5.7 0.3 1.9 0.6 3.8 0.7 5.7 0.4 3.8 0.6 7.6 0.6 11.5v2.5h-2.5c-4.3 0.1-8.6-0.1-12.9-0.5-2.1-0.2-4.3-0.4-6.4-0.7-2.1-0.4-4.3-0.7-6.4-1.3 2.1-0.6 4.3-0.9 6.4-1.3 2.1-0.3 4.3-0.6 6.4-0.7 4.3-0.3 8.6-0.5 12.9-0.5l-2.5 2.5c0.1-3.8 0.2-7.6 0.6-11.5 0.2-1.9 0.4-3.8 0.7-5.7 0.3-1.9 0.6-3.8 1.2-5.7z" fill="#750707" p-id="24069"></path><path d="M507.3 702.8c0.5 1.9 0.8 3.8 1.2 5.7 0.3 1.9 0.6 3.8 0.7 5.7 0.4 3.8 0.6 7.6 0.6 11.5v2.5h-2.5c-4.3 0.1-8.6-0.1-12.9-0.5-2.1-0.2-4.3-0.4-6.4-0.7-2.1-0.4-4.3-0.7-6.4-1.3 2.1-0.6 4.3-0.9 6.4-1.3 2.1-0.3 4.3-0.6 6.4-0.7 4.3-0.3 8.6-0.5 12.9-0.5l-2.5 2.5c0.1-3.8 0.2-7.6 0.6-11.5 0.2-1.9 0.4-3.8 0.7-5.7 0.3-1.9 0.7-3.8 1.2-5.7z" fill="#750707" p-id="24070"></path></svg>