<?xml version="1.0" standalone="no"?><!DOCTYPE svg PUBLIC "-//W3C//DTD SVG 1.1//EN" "http://www.w3.org/Graphics/SVG/1.1/DTD/svg11.dtd"><svg t="1776852499485" class="icon" viewBox="0 0 1024 1024" version="1.1" xmlns="http://www.w3.org/2000/svg" p-id="16773" xmlns:xlink="http://www.w3.org/1999/xlink" width="128" height="128"><path d="M528.896 642.389333a33.792 33.792 0 0 1 8.465067 45.602134 33.792 33.792 0 0 1-45.7728-7.099734l-99.2256-94.890666a33.792 33.792 0 0 1-8.465067-45.533867 33.792 33.792 0 0 1 45.7728 7.099733l99.259733 94.856534zM873.0624 144.964267a53.521067 53.521067 0 0 0-61.44 4.061866c-31.1296 20.821333-253.7472 237.226667-350.481067 337.169067-11.8784 15.837867-19.899733 28.125867 37.034667 85.0944 48.128 48.093867 70.485333 44.9536 94.8224 24.1664 40.5504-40.5504 213.1968-281.258667 276.957867-373.009067 10.478933-15.086933 31.914667-57.9584 3.072-77.482666h0.034133z" fill="#d4237a" p-id="16774"></path><path d="M347.989333 586.205867s-97.28 52.8384-101.034666 135.68a190.293333 190.293333 0 0 1-109.226667 150.596266c-26.385067 7.509333 385.2288 24.576 354.986667-152.3712l-144.725334-133.905066z" fill="#d4237a" opacity=".9" p-id="16775"></path></svg>