<?xml version="1.0" standalone="no"?><!DOCTYPE svg PUBLIC "-//W3C//DTD SVG 1.1//EN" "http://www.w3.org/Graphics/SVG/1.1/DTD/svg11.dtd"><svg t="1776852087431" class="icon" viewBox="0 0 1024 1024" version="1.1" xmlns="http://www.w3.org/2000/svg" p-id="8130" width="128" height="128" xmlns:xlink="http://www.w3.org/1999/xlink"><path d="M343.884403 551.936l31.36-55.936 64.128 42.496-34.176 52.736z" fill="#FAD5C3" p-id="8131"></path><path d="M405.196403 595.968c-0.896 0-1.792-0.256-2.56-0.768l-61.312-39.296c-2.048-1.408-2.816-4.096-1.536-6.272l31.488-55.936c0.64-1.152 1.792-1.92 2.944-2.304 1.28-0.256 2.56-0.128 3.712 0.64l64.128 42.496c2.176 1.408 2.816 4.352 1.408 6.528l-34.304 52.736c-0.896 1.408-2.432 2.176-3.968 2.176z m-55.04-45.568l53.632 34.304 29.184-44.928-55.936-37.12-26.88 47.744z" fill="#1F0A0C" p-id="8132"></path><path d="M258.508403 586.88m-22.016 0a22.016 22.016 0 1 0 44.032 0 22.016 22.016 0 1 0-44.032 0Z" fill="#F0C6B6" p-id="8133"></path><path d="M258.508403 613.632c-14.72 0-26.752-12.032-26.752-26.752 0-14.72 12.032-26.752 26.752-26.752s26.752 12.032 26.752 26.752c0 14.72-11.904 26.752-26.752 26.752z m0-44.032c-9.472 0-17.28 7.808-17.28 17.28s7.808 17.28 17.28 17.28 17.28-7.808 17.28-17.28-7.68-17.28-17.28-17.28z" fill="#1F0A0C" p-id="8134"></path><path d="M442.700403 668.928m-22.016 0a22.016 22.016 0 1 0 44.032 0 22.016 22.016 0 1 0-44.032 0Z" fill="#F0C6B6" p-id="8135"></path><path d="M442.700403 695.68c-14.72 0-26.752-12.032-26.752-26.752 0-14.72 12.032-26.752 26.752-26.752s26.752 12.032 26.752 26.752c-0.128 14.72-12.032 26.752-26.752 26.752z m0-44.032c-9.472 0-17.28 7.808-17.28 17.28s7.808 17.28 17.28 17.28 17.28-7.808 17.28-17.28-7.808-17.28-17.28-17.28z" fill="#1F0A0C" p-id="8136"></path><path d="M341.324403 649.984m-98.048 0a98.048 98.048 0 1 0 196.096 0 98.048 98.048 0 1 0-196.096 0Z" fill="#FAD5C3" p-id="8137"></path><path d="M341.324403 752.768c-56.704 0-102.784-46.08-102.784-102.784s46.08-102.784 102.784-102.784 102.784 46.08 102.784 102.784-46.08 102.784-102.784 102.784z m0-196.096c-51.456 0-93.312 41.856-93.312 93.312s41.856 93.312 93.312 93.312 93.312-41.856 93.312-93.312-41.856-93.312-93.312-93.312z" fill="#1F0A0C" p-id="8138"></path><path d="M192.972403 579.072l286.08 136.832-92.032 43.136-22.272 56.32c-4.992 12.544-19.456 18.304-31.616 12.416l-127.36-60.544c-12.672-6.016-17.152-21.76-9.6-33.536l29.824-46.976-33.024-107.648z" fill="#3B3738" p-id="8139"></path><path d="M319.436403 613.12c-0.384 0-0.768 0-1.152-0.128-3.456-0.64-5.632-3.968-4.992-7.424l2.56-13.312c0.64-3.456 3.968-5.632 7.424-4.992 3.456 0.64 5.632 3.968 4.992 7.424l-2.56 13.312c-0.64 3.072-3.328 5.12-6.272 5.12zM387.020403 643.072c-2.048 0-4.096-1.024-5.376-2.944l-11.776-18.816c-1.152-1.92-1.28-4.352-0.128-6.4s3.2-3.2 5.504-3.2h19.712c3.456 0 6.272 2.816 6.272 6.272s-2.816 6.272-6.272 6.272H386.636403l5.76 9.216c1.792 2.944 0.896 6.784-2.048 8.704-1.024 0.64-2.176 0.896-3.328 0.896zM352.076403 611.584c-1.536 0-3.072-0.768-3.968-2.176-3.968-6.272-3.456-11.136-2.304-13.952 2.688-6.528 10.24-8.576 11.136-8.704 2.56-0.64 5.12 1.024 5.632 3.456 0.64 2.56-0.896 5.12-3.456 5.632-1.152 0.256-3.84 1.536-4.608 3.072-0.64 1.536 0.64 3.968 1.536 5.376 1.408 2.176 0.768 5.12-1.408 6.528-0.768 0.512-1.664 0.768-2.56 0.768zM377.676403 601.088c-1.792 0-3.584-1.024-4.352-2.816-4.096-9.6-18.944-22.016-24.32-25.984-2.048-1.536-2.56-4.48-1.024-6.528 1.536-2.048 4.48-2.56 6.528-1.024 0.896 0.64 21.504 15.872 27.52 29.824 1.024 2.432-0.128 5.12-2.56 6.144-0.64 0.256-1.152 0.384-1.792 0.384z" fill="#1F0A0C" p-id="8140"></path><path d="M351.692403 513.024l91.008 45.568 22.016-29.824 85.888 102.912 120.32-101.376-68.352-93.568 83.328-81.792-191.872-171.264S384.716403 267.52 377.676403 288c13.824 7.296 22.784 12.544 22.784 12.544l-59.008-36.736-91.904 115.84 132.608 89.088-30.464 44.288z" fill="#E9815F" p-id="8141"></path><path d="M550.604403 637.952h-0.512c-1.664-0.128-3.2-0.896-4.224-2.176L464.972403 538.88l-17.28 23.424c-1.792 2.432-5.12 3.2-7.936 1.92l-91.008-45.568c-1.664-0.768-2.816-2.304-3.328-4.096-0.512-1.792-0.128-3.584 0.896-5.12l26.752-39.04-127.36-85.504c-1.408-1.024-2.432-2.56-2.688-4.224-0.256-1.792 0.256-3.456 1.28-4.864l91.904-115.84c2.048-2.56 5.504-3.072 8.192-1.408l31.616 19.584c20.48-27.136 97.152-86.656 113.792-99.456 2.432-1.792 5.76-1.664 8.064 0.256L689.996403 350.336c1.28 1.152 2.048 2.816 2.048 4.48 0 1.792-0.64 3.456-1.92 4.608L610.636403 437.376l65.152 89.088c1.92 2.688 1.536 6.4-1.024 8.576l-120.32 101.376c-1.024 1.024-2.432 1.536-3.84 1.536zM464.716403 522.496c1.92 0 3.584 0.768 4.864 2.304l81.792 98.176 110.976-93.568-64.896-88.832c-1.792-2.56-1.536-6.016 0.64-8.192l78.464-77.056-182.912-163.456c-37.504 28.928-92.544 74.24-106.88 92.8l16.896 10.496c2.944 1.792 3.84 5.632 2.048 8.576s-5.632 3.968-8.576 2.176c-0.128 0-8.96-5.248-22.528-12.416-1.408-0.768-2.432-2.048-2.944-3.456l-28.928-17.92-84.096 106.112 126.976 85.248c1.408 0.896 2.304 2.432 2.688 4.096 0.256 1.664 0 3.328-1.024 4.736l-26.368 38.272 79.744 39.936 18.816-25.6c1.152-1.536 2.944-2.56 4.864-2.56 0.256 0.128 0.256 0.128 0.384 0.128z" fill="#1F0A0C" p-id="8142"></path><path d="M262.476403 363.392L144.204403 266.24v-14.208s-18.048 54.272-77.824-4.736-65.28-68.352-56.96-85.248 43.264 21.248 47.104 27.52c-16.896-19.2-53.12-51.456-24.32-71.552 11.392-6.656 42.88 21.632 57.344 39.68-19.2-22.016-44.416-36.992-30.208-54.272s59.392 20.096 73.472 42.112c-1.536-11.008 19.2-33.792 38.912-23.168s-14.592 48.768-19.712 53.12c11.008-13.312 55.296 31.36 166.016 117.888L262.476403 363.392z" fill="#F5C4B0" p-id="8143"></path><path d="M262.476403 369.664c-1.408 0-2.816-0.512-3.968-1.408l-118.272-97.152c-0.128-0.128-0.384-0.256-0.512-0.512-4.096 4.096-9.472 7.808-16.64 9.6-17.28 4.096-37.888-5.376-61.184-28.416-58.368-57.6-68.864-70.784-58.24-92.544 2.304-4.736 6.4-7.552 11.52-7.808 1.152-0.128 2.432 0 3.712 0.256-2.816-6.144-4.224-12.288-3.584-18.432 0.896-8.064 5.376-14.976 13.184-20.48 0.128-0.128 0.256-0.128 0.384-0.256 5.248-3.072 12.288-1.92 19.712 1.664-0.128-4.736 1.536-9.728 5.632-14.72 2.688-3.328 7.808-7.168 16.64-6.656 18.304 1.024 44.288 21.504 59.392 39.168 2.688-4.48 6.784-8.832 11.648-12.288 10.496-7.296 22.4-8.448 32.64-2.944 5.376 2.944 8.576 7.68 9.216 13.696 1.28 12.16-8.96 27.776-17.408 38.272 14.72 6.144 37.888 24.96 77.184 56.96 20.992 17.024 47.232 38.272 78.208 62.592 1.28 1.024 2.176 2.56 2.432 4.224 0.256 1.664-0.256 3.328-1.28 4.608l-55.552 70.016c-1.024 1.28-2.56 2.176-4.224 2.304-0.256 0.256-0.384 0.256-0.64 0.256z m-112-106.368l110.976 91.136 47.616-60.16c-28.928-22.784-53.504-42.624-73.472-58.88-38.4-31.104-71.552-58.112-78.72-56.064-0.384 0.384-0.768 0.64-0.896 0.896-2.432 2.048-6.144 1.92-8.448-0.384-2.304-2.304-2.56-6.016-0.384-8.448 0.896-1.024 1.792-1.92 2.688-2.56 7.04-7.04 22.528-27.008 21.504-36.992-0.256-1.792-0.896-2.944-2.688-3.84-8.064-4.352-15.616-0.512-19.456 2.176-7.296 5.12-10.496 12.288-10.24 14.592 0.384 2.944-1.28 5.76-3.968 6.784-2.816 1.024-5.888 0-7.424-2.432-10.624-16.512-40.448-42.624-57.216-43.52-3.84-0.256-5.376 1.152-6.144 2.048-5.248 6.528-2.56 12.288 7.424 22.912 10.24 8.96 19.072 18.688 22.784 23.424 2.176 2.688 1.792 6.528-0.896 8.704-2.56 2.176-6.528 1.92-8.832-0.64-4.48-5.12-9.216-9.728-13.824-14.336-2.944-2.944-5.888-5.888-8.704-8.832-12.416-10.496-23.552-16.768-26.752-15.36-4.736 3.328-7.168 7.04-7.68 11.264-1.152 10.112 8.704 23.168 18.688 34.56 8.192 7.808 14.464 15.616 15.36 17.024 1.792 2.816 1.024 6.4-1.536 8.32-2.688 1.92-6.272 1.536-8.448-0.896-2.048-2.304-4.224-4.736-6.656-7.296-2.432-2.688-5.12-5.504-7.68-8.448-7.68-7.168-16.64-13.952-21.376-13.952h-0.256c-0.384 0-0.512 0-0.896 0.768-5.888 12.032-4.864 18.176 55.808 78.08 19.584 19.328 36.608 28.032 49.28 25.088 12.928-3.072 18.048-17.792 18.176-17.92 1.024-2.944 3.968-4.736 7.04-4.224 3.072 0.512 5.248 3.072 5.248 6.144v11.264z" fill="#1F0A0C" p-id="8144"></path><path d="M565.196403 619.392s19.712 7.552 19.712 59.52v115.072s-74.368-16.768-101.632 16c-22.528 28.928 69.12 28.8 69.12 28.8s-18.56 19.328 26.752 19.072 86.144 8.704 87.04-45.568-0.512-155.904 0-172.672c0.512-16.768-2.432-59.264-36.352-74.624l-64.64 54.4z" fill="#F5C4B0" p-id="8145"></path><path d="M609.996403 864.512c-4.48 0-9.088-0.128-13.696-0.128-5.632-0.128-11.392-0.256-17.152-0.256-20.992 0-32.256-3.712-35.84-12.032-1.024-2.56-1.28-4.992-0.896-7.296-21.376-0.64-59.776-4.224-67.584-19.968-1.92-4.096-3.072-10.624 3.328-18.816 24.32-29.312 79.872-23.168 100.352-19.712v-107.392c0-45.568-15.488-53.504-15.744-53.632-2.048-0.768-3.584-2.688-3.968-4.864-0.384-2.176 0.512-4.352 2.176-5.888l64.64-54.528c1.792-1.536 4.48-1.92 6.656-0.896 38.912 17.664 40.448 66.176 39.936 80.64-0.256 7.168-0.128 30.848 0 58.24 0.128 37.12 0.384 83.456 0 114.304-0.256 17.792-4.608 30.592-13.44 39.04-11.52 11.392-29.184 13.184-48.768 13.184zM581.196403 851.584c5.248 0 10.368 0.128 15.36 0.256 23.04 0.512 43.008 0.896 53.632-9.344 6.272-6.016 9.344-15.872 9.6-30.208 0.384-30.72 0.256-76.928 0-114.048-0.128-28.672-0.256-51.328 0-58.752 0.384-12.032-0.768-51.072-29.184-66.944l-55.552 46.848c6.912 7.424 16 24.064 16 59.648v115.072c0 1.92-0.896 3.712-2.304 4.864-1.536 1.152-3.456 1.664-5.248 1.28-0.768-0.128-71.04-15.488-95.488 13.824-1.152 1.536-2.688 3.84-1.92 5.376 3.84 7.808 37.12 13.056 65.92 13.056h0.384c2.56 0 4.736 1.536 5.76 3.84 1.024 2.304 0.512 4.992-1.28 6.784-1.28 1.408-2.304 3.456-2.048 4.096 0 0 2.56 4.48 23.296 4.48h0.896c0.768-0.128 1.408-0.128 2.176-0.128z" fill="#1F0A0C" p-id="8146"></path><path d="M584.396403 820.864c-3.456 0-6.272-2.816-6.272-6.272v-20.736c0-3.456 2.816-6.272 6.272-6.272s6.272 2.816 6.272 6.272v20.736c0 3.456-2.816 6.272-6.272 6.272zM576.972403 845.056h-24.576c-3.456 0-6.272-2.816-6.272-6.272s2.816-6.272 6.272-6.272h24.576c3.456 0 6.272 2.816 6.272 6.272 0.128 3.456-2.688 6.272-6.272 6.272z" fill="#1F0A0C" p-id="8147"></path><path d="M510.412403 198.4l138.88-105.6c12.288-9.344 30.08-5.888 37.888 7.552 15.232 26.112 38.016 66.048 48.128 88.064 15.744 34.56 99.072 194.944 117.12 215.424-77.056 45.568-136.832 82.432-136.832 82.432l-29.824-131.328-175.36-156.544z" fill="#5571A2" p-id="8148"></path><path d="M715.596403 492.544c-0.768 0-1.664-0.128-2.432-0.512-1.92-0.768-3.2-2.432-3.712-4.352l-29.44-129.28-173.824-155.392c-1.408-1.28-2.176-3.072-2.048-4.992 0.128-1.92 1.024-3.584 2.432-4.736l138.88-105.6c7.296-5.504 16.64-7.68 25.728-5.888 8.96 1.792 16.768 7.424 21.504 15.232 16.64 28.416 38.528 66.944 48.384 88.704 17.408 38.144 99.328 194.816 116.096 213.76 1.28 1.408 1.792 3.328 1.536 5.12-0.256 1.792-1.408 3.456-3.072 4.48-76.16 45.056-136.064 82.048-136.704 82.432-1.024 0.768-2.176 1.024-3.328 1.024zM520.268403 198.784L689.996403 350.336c1.024 0.896 1.664 2.048 1.92 3.328l27.904 122.752c17.792-10.88 65.408-40.064 123.264-74.368-24.96-36.096-99.072-178.944-113.536-210.944-9.728-21.248-31.36-59.392-47.744-87.552-2.816-4.864-7.552-8.192-13.056-9.344-5.504-1.152-11.136 0.256-15.616 3.584l-132.864 100.992z" fill="#1F0A0C" p-id="8149"></path><path d="M588.236403 270.976s150.144-123.392 174.464-127.36c24.32-3.968 164.224 69.12 164.224 69.12l-50.304 150.528-113.92-68.096-77.056 59.776-97.408-83.968z" fill="#5571A2" p-id="8150"></path><path d="M876.748403 369.664c-1.152 0-2.176-0.256-3.2-0.896l-110.336-65.792-73.6 57.088a6.1952 6.1952 0 0 1-7.936-0.256l-97.408-84.096c-1.408-1.152-2.176-2.944-2.176-4.864 0-1.792 0.896-3.584 2.304-4.736 15.488-12.8 152.192-124.544 177.536-128.64 25.088-4.096 144.512 57.472 168.192 69.76 2.688 1.408 3.968 4.608 3.072 7.552l-50.304 150.528c-0.64 1.792-2.048 3.2-3.84 3.968-0.768 0.256-1.536 0.384-2.304 0.384z m-113.92-80.64c1.152 0 2.176 0.256 3.2 0.896l107.264 64 46.08-138.112c-53.76-27.776-139.904-68.608-155.52-66.048-16 2.56-107.648 73.728-165.76 121.216l87.936 75.904 72.96-56.576c1.024-0.896 2.432-1.28 3.84-1.28z" fill="#1F0A0C" p-id="8151"></path><path d="M762.828403 301.568c-1.792 0-3.712-0.768-4.992-2.432-2.176-2.688-1.664-6.656 1.024-8.832l26.752-21.248c2.688-2.176 6.656-1.664 8.832 1.024 2.176 2.688 1.664 6.656-1.024 8.832l-26.752 21.248c-1.152 1.024-2.56 1.408-3.84 1.408zM545.612403 236.16c-2.304 0-4.48-1.28-5.632-3.328-1.664-3.072-0.384-6.912 2.688-8.448 31.36-16.256 19.328-67.712 19.2-68.224-0.768-3.328 1.28-6.784 4.608-7.552 3.328-0.768 6.784 1.28 7.552 4.608 0.64 2.56 14.464 61.44-25.6 82.304-0.896 0.384-1.792 0.64-2.816 0.64zM609.484403 293.248c-2.048 0-4.096-1.024-5.248-2.944-1.92-2.944-1.024-6.784 1.92-8.704 36.352-23.168 39.552-35.968 39.168-40.448-0.384-4.992-5.76-7.296-5.888-7.424-3.2-1.408-4.736-4.992-3.328-8.192 1.28-3.2 4.992-4.736 8.064-3.456 4.608 1.92 12.8 7.68 13.696 17.792 1.408 14.976-13.312 32.128-44.928 52.224-1.152 0.768-2.304 1.152-3.456 1.152zM648.780403 329.344c-1.536 0-3.072-0.512-4.352-1.792-2.56-2.432-2.56-6.4-0.256-8.832 1.28-1.28 30.592-32 63.744-31.232 14.848 0.384 28.032 6.912 39.04 19.584 2.304 2.688 1.92 6.656-0.64 8.832-2.56 2.304-6.656 2.048-8.832-0.64-8.704-9.984-18.432-14.976-29.696-15.36-27.264-0.64-54.144 27.008-54.4 27.264-1.28 1.536-2.944 2.176-4.608 2.176zM579.660403 470.272c-1.408 0-2.816-0.512-3.968-1.408-2.688-2.176-3.072-6.144-0.768-8.832l22.784-27.264c2.176-2.688 6.144-3.072 8.832-0.768 2.688 2.176 3.072 6.144 0.768 8.832l-22.784 27.264c-1.28 1.408-3.072 2.176-4.864 2.176zM575.436403 367.616c-3.968 0-7.296-2.944-7.808-6.912-0.512-4.352 2.56-8.192 6.912-8.704l36.736-4.224c4.352-0.512 8.192 2.56 8.704 6.912 0.512 4.352-2.56 8.192-6.912 8.704l-36.736 4.224h-0.896zM484.300403 292.608c-4.352 0-7.808-3.456-7.808-7.808v-38.656c0-4.352 3.456-7.808 7.808-7.808s7.808 3.456 7.808 7.808v38.656c0 4.224-3.456 7.808-7.808 7.808zM389.068403 538.112c-1.024 0-1.92-0.256-2.944-0.768-3.072-1.664-4.224-5.376-2.688-8.448 0.896-1.792 94.336-179.072 200.832-262.912 2.688-2.176 6.656-1.664 8.832 1.024 2.176 2.688 1.664 6.656-1.024 8.832C487.756403 358.016 395.596403 532.992 394.700403 534.656c-1.152 2.176-3.328 3.456-5.632 3.456z" fill="#1F0A0C" p-id="8152"></path><path d="M855.756403 463.488s31.488-4.48 42.496 16.768c11.008 21.248-3.2 39.04-21.248 50.944-18.048 11.904-127.36 81.92-127.36 81.92s-44.8 7.808-47.104-39.296 56.448-90.624 59.776-91.904c20.224-7.936 35.84 36.48 35.84 36.48l57.6-54.912z" fill="#3B3738" p-id="8153"></path><path d="M742.732403 619.904c-7.936 0-20.224-1.536-30.208-9.6-9.856-7.936-15.36-20.096-16.128-36.224-2.56-51.456 59.136-96.256 63.744-98.176 5.12-2.048 10.496-1.792 15.744 0.512 11.52 5.248 20.224 20.736 24.832 30.848l50.944-48.384c0.896-0.896 2.176-1.536 3.456-1.664 1.408-0.256 35.968-4.736 48.896 20.096 10.752 20.736 2.176 42.24-23.296 59.136-17.92 11.776-126.336 81.152-127.36 81.92-0.64 0.512-1.536 0.768-2.304 0.896-0.64 0.128-3.712 0.64-8.32 0.64z m22.144-132.352c-6.784 3.968-58.112 44.672-56.064 85.888 0.64 12.288 4.48 21.376 11.392 27.008 9.728 7.68 23.296 7.04 27.264 6.528 11.904-7.68 109.312-70.016 126.08-81.024 14.08-9.216 28.8-24.192 19.072-42.88-7.424-14.464-27.776-14.08-34.048-13.568l-56.064 53.248c-1.536 1.408-3.712 2.048-5.76 1.536-2.048-0.512-3.712-2.048-4.48-3.968-3.712-10.368-12.928-28.288-21.76-32.384-2.048-0.896-3.84-1.024-5.632-0.384z" fill="#1F0A0C" p-id="8154"></path><path d="M890.188403 323.072l36.864 26.752 28.8-58.752-46.336-25.728z" fill="#FAD5C3" p-id="8155"></path><path d="M927.052403 356.096c-1.28 0-2.56-0.384-3.712-1.152l-36.864-26.752c-2.176-1.664-3.2-4.48-2.304-7.04l19.328-57.728c0.64-1.792 1.92-3.2 3.712-3.84s3.712-0.512 5.376 0.384l46.336 25.728c2.944 1.664 4.096 5.248 2.56 8.32l-28.8 58.752c-0.768 1.664-2.304 2.944-4.096 3.328-0.512-0.128-1.024 0-1.536 0z m-29.44-35.328l27.008 19.584 22.912-46.592-34.56-19.2-15.36 46.208z" fill="#1F0A0C" p-id="8156"></path><path d="M246.604403 606.464l36.352 17.152-17.92 37.12-36.096-16.64zM317.004403 639.616l35.072 17.152-18.432 38.4-34.816-16.256zM387.788403 672.256l36.224 18.048-19.84 38.272-34.56-16.896zM334.796403 694.016l35.2 16.64-17.408 36.352-34.816-16.256zM263.628403 662.016l35.2 16.768-16.256 34.048-34.688-16.896z" fill="#FFFFFF" p-id="8157"></path><path d="M282.572403 711.04l35.2 16.768-17.408 36.352-34.816-16.256zM229.708403 730.368l35.328 16.768-17.408 36.224-34.944-16.256zM300.364403 765.312l33.792 16.256-18.56 38.016-34.944-16.256zM349.516403 747.008l35.84 16.384-15.744 35.84-35.456-18.944zM225.356403 684.928l20.864 12.8-16.512 32.64-24.064-11.648z" fill="#FFFFFF" p-id="8158"></path><path d="M205.644403 718.72l164.992 79.616" fill="#3B3738" p-id="8159"></path><path d="M370.636403 801.536c-0.512 0-0.896-0.128-1.408-0.256l-164.992-79.616c-1.536-0.768-2.176-2.688-1.408-4.224 0.768-1.536 2.688-2.176 4.224-1.408l164.992 79.616c1.536 0.768 2.176 2.688 1.408 4.224-0.512 1.024-1.536 1.664-2.816 1.664z" fill="#1F0A0C" p-id="8160"></path><path d="M225.356403 684.928l157.952 77.056" fill="#3B3738" p-id="8161"></path><path d="M383.308403 765.184c-0.512 0-0.896-0.128-1.408-0.256l-157.952-77.056c-1.536-0.768-2.176-2.688-1.408-4.224 0.768-1.536 2.688-2.176 4.224-1.408l157.952 77.056c1.536 0.768 2.176 2.688 1.408 4.224-0.512 0.896-1.664 1.664-2.816 1.664z" fill="#1F0A0C" p-id="8162"></path><path d="M212.684403 639.616l214.784 99.072" fill="#3B3738" p-id="8163"></path><path d="M427.468403 741.888c-0.384 0-0.896-0.128-1.28-0.256l-214.656-99.2c-1.536-0.768-2.304-2.56-1.536-4.224 0.768-1.536 2.56-2.304 4.224-1.536L428.876403 735.872c1.536 0.768 2.304 2.56 1.536 4.224-0.64 1.152-1.792 1.792-2.944 1.792z" fill="#1F0A0C" p-id="8164"></path><path d="M424.012403 690.304L387.020403 759.04" fill="#3B3738" p-id="8165"></path><path d="M387.020403 762.24c-0.512 0-1.024-0.128-1.536-0.384-1.536-0.768-2.048-2.688-1.28-4.224l36.992-68.736c0.768-1.536 2.688-2.048 4.224-1.28 1.536 0.768 2.048 2.688 1.28 4.224l-36.992 68.736c-0.384 1.024-1.536 1.664-2.688 1.664z" fill="#1F0A0C" p-id="8166"></path><path d="M387.916403 673.408L318.796403 816.64" fill="#3B3738" p-id="8167"></path><path d="M318.796403 819.712c-0.512 0-0.896-0.128-1.408-0.256-1.536-0.768-2.176-2.688-1.408-4.224l68.992-143.104c0.768-1.536 2.688-2.176 4.224-1.408 1.536 0.768 2.176 2.688 1.408 4.224L321.740403 817.92c-0.64 1.152-1.664 1.792-2.944 1.792z" fill="#1F0A0C" p-id="8168"></path><path d="M353.356403 655.744l-71.424 144.768" fill="#3B3738" p-id="8169"></path><path d="M281.932403 803.584c-0.512 0-0.896-0.128-1.408-0.384-1.536-0.768-2.176-2.688-1.408-4.224l71.424-144.768c0.768-1.536 2.688-2.176 4.224-1.408 1.536 0.768 2.176 2.688 1.408 4.224l-71.424 144.768c-0.512 1.152-1.664 1.792-2.816 1.792z" fill="#1F0A0C" p-id="8170"></path><path d="M317.900403 638.848l-70.656 145.28" fill="#3B3738" p-id="8171"></path><path d="M247.244403 787.328c-0.512 0-0.896-0.128-1.408-0.256-1.536-0.768-2.176-2.688-1.408-4.224L315.084403 637.44c0.768-1.536 2.688-2.176 4.224-1.408 1.536 0.768 2.176 2.688 1.408 4.224l-70.784 145.28c-0.384 1.152-1.536 1.792-2.688 1.792z" fill="#1F0A0C" p-id="8172"></path><path d="M282.956403 624.64l-70.272 142.08" fill="#3B3738" p-id="8173"></path><path d="M212.684403 769.792c-0.512 0-0.896-0.128-1.408-0.384-1.536-0.768-2.176-2.688-1.408-4.224l70.272-142.08c0.768-1.536 2.688-2.176 4.224-1.408 1.536 0.768 2.176 2.688 1.408 4.224l-70.272 142.08c-0.512 1.152-1.664 1.792-2.816 1.792z" fill="#1F0A0C" p-id="8174"></path><path d="M247.244403 605.056l-26.624 57.088" fill="#3B3738" p-id="8175"></path><path d="M220.620403 665.344c-0.384 0-0.896-0.128-1.28-0.256-1.536-0.768-2.304-2.56-1.536-4.224l26.624-57.088c0.768-1.536 2.56-2.304 4.224-1.536 1.536 0.768 2.304 2.56 1.536 4.224l-26.624 57.088c-0.64 1.024-1.792 1.792-2.944 1.792z" fill="#1F0A0C" p-id="8176"></path><path d="M343.116403 833.152c-3.84 0-7.68-0.896-11.264-2.56l-127.36-60.544c-6.784-3.2-12.032-9.344-14.08-16.512-2.048-7.296-1.024-15.104 3.072-21.504l29.056-45.696-32.64-106.24c-0.384-1.152 0-2.432 0.896-3.328 0.896-0.768 2.304-1.024 3.456-0.512L480.332403 712.96c1.152 0.512 1.792 1.664 1.792 2.816 0 1.152-0.768 2.304-1.792 2.816l-90.88 42.752-21.76 55.04c-2.688 6.912-8.064 12.16-14.848 14.848-3.2 1.28-6.4 1.92-9.728 1.92zM198.092403 584.96l30.976 100.864c0.256 0.896 0.128 1.792-0.384 2.56l-29.824 46.976c-3.072 4.864-3.968 10.88-2.304 16.384 1.536 5.504 5.504 10.112 10.752 12.672l127.36 60.544c5.12 2.432 10.752 2.56 16 0.512s9.216-6.144 11.392-11.392l22.272-56.192c0.256-0.768 0.896-1.408 1.536-1.664l86.016-40.448L198.092403 584.96z" fill="#1F0A0C" p-id="8177"></path><path d="M737.740403 527.616l9.216 23.04-21.504 15.616-8.96-23.296zM751.948403 552.832l23.936-16.512 11.52 26.368-24.96 16zM799.308403 518.016l62.08-54.4s36.48 3.968 30.464 25.728c-35.2 22.784-73.856 55.168-73.856 55.168l-18.688-26.496z" fill="#FEFFFF" p-id="8178"></path><path d="M708.300403 582.016c3.968-3.968 91.776-67.328 91.776-67.328" fill="#3B3738" p-id="8179"></path><path d="M708.300403 585.216c-0.768 0-1.664-0.256-2.176-0.896-1.28-1.28-1.28-3.2 0-4.48 3.968-3.968 83.2-61.184 92.16-67.712 1.408-1.024 3.328-0.64 4.352 0.768 1.024 1.408 0.64 3.328-0.768 4.352-35.2 25.344-88.576 64.128-91.392 67.072-0.512 0.64-1.408 0.896-2.176 0.896z" fill="#1F0A0C" p-id="8180"></path><path d="M796.748403 582.016l-41.984-93.824" fill="#3B3738" p-id="8181"></path><path d="M796.748403 585.216c-1.152 0-2.304-0.64-2.816-1.92l-41.984-93.952c-0.768-1.536 0-3.456 1.536-4.096 1.536-0.768 3.456 0 4.096 1.536l41.984 93.952c0.768 1.536 0 3.456-1.536 4.096-0.384 0.256-0.896 0.384-1.28 0.384z" fill="#1F0A0C" p-id="8182"></path><path d="M711.628403 538.88l28.928 64.384" fill="#3B3738" p-id="8183"></path><path d="M740.556403 606.464c-1.152 0-2.304-0.64-2.816-1.92L708.812403 540.16c-0.768-1.536 0-3.456 1.536-4.096 1.536-0.768 3.456 0 4.096 1.536l28.928 64.384c0.768 1.536 0 3.456-1.536 4.096-0.384 0.256-0.896 0.384-1.28 0.384z" fill="#1F0A0C" p-id="8184"></path><path d="M899.532403 482.304L729.164403 612.224" fill="#3B3738" p-id="8185"></path><path d="M729.164403 615.296c-0.896 0-1.92-0.384-2.56-1.28-1.024-1.408-0.768-3.328 0.64-4.352l170.368-129.92c1.408-1.024 3.328-0.768 4.352 0.64 1.024 1.408 0.768 3.328-0.64 4.352l-170.24 129.92c-0.512 0.512-1.28 0.64-1.92 0.64z" fill="#1F0A0C" p-id="8186"></path><path d="M740.812403 609.664c-11.392 0-21.248-6.528-26.368-12.032-1.792-1.92-1.664-4.864 0.256-6.656 1.92-1.792 4.864-1.664 6.656 0.256 1.792 1.92 18.176 18.176 35.84 1.792 16-14.848 116.224-78.08 125.44-83.968 1.152-1.28 5.376-7.04 5.12-17.792 0-2.56 2.048-4.736 4.608-4.864 2.56 0 4.736 2.048 4.864 4.608 0.256 16.512-7.936 24.704-8.192 24.96-0.256 0.256-0.512 0.384-0.768 0.64-1.024 0.64-108.8 68.48-124.544 83.2-7.808 7.296-15.744 9.856-22.912 9.856z" fill="#FFFFFF" p-id="8187"></path><path d="M796.748403 519.552l21.248 24.96" fill="#3B3738" p-id="8188"></path><path d="M817.996403 547.712c-0.896 0-1.792-0.384-2.432-1.152l-21.248-25.088c-1.152-1.28-0.896-3.328 0.384-4.48 1.28-1.152 3.328-0.896 4.48 0.384l21.248 25.088c1.152 1.28 0.896 3.328-0.384 4.48-0.64 0.512-1.408 0.768-2.048 0.768z" fill="#1F0A0C" p-id="8189"></path><path d="M728.908403 600.832c-6.784 0-14.208-1.92-21.248-7.68-2.688-2.176-3.072-6.144-0.768-8.832 2.176-2.688 6.144-3.072 8.832-0.768 12.928 10.752 29.568 0 30.336-0.384l68.608-43.776c0.64-0.384 50.688-31.104 63.36-42.112 9.728-8.448 5.888-18.432 5.888-18.56-1.28-3.2 0.256-6.912 3.584-8.192 3.2-1.28 6.912 0.256 8.192 3.584 0.256 0.768 7.04 18.56-9.344 32.64-13.44 11.648-62.848 41.984-64.896 43.264l-68.48 43.648c-0.768 0.256-11.264 7.168-24.064 7.168z" fill="#1F0A0C" p-id="8190"></path><path d="M768.460403 454.016s34.432 40.96 11.904 75.008C813.388403 504.448 856.396403 467.2 856.396403 467.2l-26.24-50.176-61.696 36.992z" fill="#FAD5C3" p-id="8191"></path><path d="M780.364403 535.296c-1.536 0-3.072-0.64-4.352-1.664-2.176-2.048-2.56-5.504-0.896-8.064 19.584-29.696-11.136-67.072-11.392-67.456-1.152-1.408-1.664-3.328-1.408-5.12 0.256-1.792 1.408-3.456 2.944-4.352l61.568-36.992c1.536-0.896 3.328-1.152 4.992-0.64 1.664 0.512 3.072 1.664 3.84 3.072l26.24 50.176c1.408 2.56 0.768 5.76-1.408 7.68-0.384 0.384-43.52 37.632-76.288 62.08-1.152 0.896-2.56 1.28-3.84 1.28z m-2.688-79.488c6.912 10.112 19.328 31.872 16.256 54.784 22.528-17.792 45.696-37.376 54.528-45.056l-20.864-39.808-49.92 30.08z" fill="#1F0A0C" p-id="8192"></path><path d="M754.252403 486.272l19.712 44.8 14.464-17.024-3.072-22.912-10.624-7.68z" fill="#1F0A0C" p-id="8193"></path><path d="M734.924403 512.896l22.144-19.328 3.968 10.496-21.632 17.024z" fill="#FEFFFF" p-id="8194"></path><path d="M731.852403 509.952l39.424 90.24" fill="#3B3738" p-id="8195"></path><path d="M771.276403 603.392c-1.152 0-2.432-0.768-2.944-1.92l-39.424-90.24c-0.64-1.536 0-3.456 1.664-4.096 1.536-0.64 3.456 0 4.096 1.664l39.424 90.24c0.64 1.536 0 3.456-1.664 4.096-0.384 0.128-0.768 0.256-1.152 0.256z" fill="#1F0A0C" p-id="8196"></path><path d="M762.828403 505.728l-49.152 37.76" fill="#3B3738" p-id="8197"></path><path d="M713.676403 546.688c-0.896 0-1.92-0.384-2.432-1.28-1.024-1.408-0.768-3.328 0.512-4.352l49.024-37.76c1.408-1.024 3.328-0.768 4.352 0.512 1.024 1.408 0.768 3.328-0.512 4.352L715.596403 546.048c-0.512 0.384-1.28 0.64-1.92 0.64z" fill="#1F0A0C" p-id="8198"></path><path d="M923.340403 274.432s29.312-61.824 67.584-59.264 27.264 34.304 17.28 66.432-25.216 91.264-42.496 96.512c-17.28 5.248-41.216-5.248-39.168-30.848 9.856-17.664 25.728-47.36 25.728-47.36l-28.928-25.472z" fill="#3B3738" p-id="8199"></path><path d="M956.748403 385.792c-8.704 0-17.408-2.816-24.064-8.192-8.96-7.296-13.312-18.176-12.288-30.848 0.128-0.896 0.384-1.792 0.768-2.56 7.424-13.44 18.432-33.92 23.296-42.88l-25.216-22.144c-2.048-1.792-2.688-4.864-1.536-7.424 1.28-2.688 31.616-65.664 73.728-62.848 13.44 0.896 22.4 5.12 27.776 12.8 9.856 14.336 3.072 36.096-4.096 59.008l-0.896 2.688c-1.28 4.352-2.816 9.088-4.352 14.208-13.696 45.824-25.472 81.28-42.368 86.4-3.328 1.28-7.04 1.792-10.752 1.792z m-23.936-36.736c-0.384 7.808 2.304 14.336 7.808 18.688 6.144 4.992 15.616 6.784 23.424 4.352 11.776-3.584 26.112-51.968 33.92-77.952 1.536-5.12 2.944-9.984 4.352-14.336l0.896-2.688c5.888-19.072 12.032-38.784 5.632-48.128-2.944-4.352-8.96-6.784-18.176-7.424-25.6-1.792-49.792 33.28-59.392 51.456l25.344 22.272c2.176 1.92 2.816 5.12 1.408 7.68-0.256 0.256-15.488 28.416-25.216 46.08z" fill="#1F0A0C" p-id="8200"></path><path d="M947.276403 382.336c-1.664 0-3.328-0.64-4.608-2.048-2.432-2.56-2.176-6.528 0.256-8.832 8.448-7.936 30.976-54.528 52.48-108.416 11.008-27.648 5.504-38.4 5.504-38.4-1.92-2.944-1.024-6.656 1.92-8.576s6.912-0.896 8.704 1.92c1.024 1.536 9.088 15.744-4.48 49.792-14.336 36.096-42.24 100.48-55.552 112.896-1.152 1.024-2.688 1.664-4.224 1.664z" fill="#FFFFFF" p-id="8201"></path><path d="M961.612403 228.736l21.248-10.368 1.792 5.248-9.472 13.952z" fill="#FFFFFF" p-id="8202"></path><path d="M928.204403 348.672s0.384 18.304 9.728 22.784 9.344-0.512 9.344-0.512l25.728-53.888-18.688-13.312-26.112 44.928z" fill="#FFFFFF" p-id="8203"></path><path d="M956.748403 385.792c-8.704 0-17.408-2.816-24.064-8.192-8.96-7.296-13.312-18.176-12.288-30.848 0.128-0.896 0.384-1.792 0.768-2.56 7.424-13.44 18.432-33.92 23.296-42.88l-25.216-22.144c-2.048-1.792-2.688-4.864-1.536-7.424 1.28-2.688 31.616-65.664 73.728-62.848 13.44 0.896 22.4 5.12 27.776 12.8 9.856 14.336 3.072 36.096-4.096 59.008l-0.896 2.688c-1.28 4.352-2.816 9.088-4.352 14.208-13.696 45.824-25.472 81.28-42.368 86.4-3.328 1.28-7.04 1.792-10.752 1.792z m-23.936-36.736c-0.384 7.808 2.304 14.336 7.808 18.688 6.144 4.992 15.616 6.784 23.424 4.352 11.776-3.584 26.112-51.968 33.92-77.952 1.536-5.12 2.944-9.984 4.352-14.336l0.896-2.688c5.888-19.072 12.032-38.784 5.632-48.128-2.944-4.352-8.96-6.784-18.176-7.424-25.6-1.792-49.792 33.28-59.392 51.456l25.344 22.272c2.176 1.92 2.816 5.12 1.408 7.68-0.256 0.256-15.488 28.416-25.216 46.08z" fill="#1F0A0C" p-id="8204"></path><path d="M959.436403 264.32l15.744-24.832 20.736 18.432 1.536 4.48-11.52 26.88z" fill="#FFFFFF" p-id="8205"></path><path d="M945.868403 376.576c-0.512 0-1.024-0.128-1.536-0.384-1.536-0.896-2.048-2.816-1.152-4.224 0.128-0.256 16.384-29.184 39.936-80.384 22.912-49.664 14.464-73.472 14.336-73.728-0.64-1.664 0.128-3.456 1.792-4.096 1.664-0.64 3.456 0.128 4.096 1.792 0.384 1.024 9.728 26.112-14.464 78.592-23.808 51.456-40.064 80.512-40.192 80.768-0.64 1.152-1.664 1.664-2.816 1.664z" fill="#1F0A0C" p-id="8206"></path><path d="M975.180403 318.848c-0.64 0-1.28-0.128-1.792-0.512l-22.912-15.744c-1.408-1.024-1.792-2.944-0.768-4.352 1.024-1.408 2.944-1.792 4.352-0.768l22.912 15.744c1.408 1.024 1.792 2.944 0.768 4.352-0.512 0.896-1.536 1.28-2.56 1.28z" fill="#1F0A0C" p-id="8207"></path><path d="M987.084403 293.504c-0.768 0-1.536-0.256-2.176-0.768L938.060403 249.6c-1.28-1.152-1.408-3.2-0.128-4.48 1.152-1.28 3.2-1.408 4.48-0.128l46.976 43.136c1.28 1.152 1.408 3.2 0.128 4.48-0.64 0.512-1.536 0.896-2.432 0.896z" fill="#1F0A0C" p-id="8208"></path><path d="M998.220403 262.912c-0.768 0-1.408-0.256-2.048-0.768L957.516403 229.248c-1.28-1.152-1.536-3.072-0.384-4.48 1.152-1.28 3.072-1.536 4.48-0.384l38.656 32.896c1.28 1.152 1.536 3.072 0.384 4.48-0.768 0.768-1.536 1.152-2.432 1.152z" fill="#1F0A0C" p-id="8209"></path><path d="M943.436403 293.504c-0.512 0-1.152-0.128-1.664-0.512-1.536-0.896-1.92-2.816-1.024-4.352l43.776-70.784c0.896-1.536 2.816-1.92 4.352-1.024 1.536 0.896 1.92 2.816 1.024 4.352l-43.776 70.784c-0.64 1.024-1.664 1.536-2.688 1.536z" fill="#1F0A0C" p-id="8210"></path></svg>