<svg xmlns="http://www.w3.org/2000/svg" viewBox="0 0 256 256">
  <path fill="#E76F00" d="M78 186c0 18 32 32 70 32s70-14 70-32-32-32-70-32-70 14-70 32zm12 0c0-9 26-20 58-20s58 11 58 20-26 20-58 20-58-11-58-20z"/>
  <path fill="#5382A1" d="M128 28c-18 18 20 30 2 52-10 12-6 22 6 30-4-10 4-16 12-24 18-18-20-30-20-58zm-22 58c-16 16 18 26 2 44-10 12-2 24 10 30-6-10 6-16 14-24 16-16-18-26-26-50zm58 0c-16 16 18 26 2 44-10 12-2 24 10 30-6-10 6-16 14-24 16-16-18-26-26-50z"/>
  <path fill="#5382A1" d="M78 164c12 14 38 24 70 24s58-10 70-24c-16 10-44 16-70 16s-54-6-70-16z"/>
</svg>
