<svg xmlns="http://www.w3.org/2000/svg" viewBox="0 0 256 256">
  <path fill="#3178C6" d="M0 0h256v256H0z"/>
  <path fill="#fff" d="M142.3 198.7v-19.6c7.2 3.7 14.6 5.6 22.2 5.6 9.1 0 13.7-2.9 13.7-8.6 0-2.6-1.2-4.8-3.6-6.5-2.4-1.7-7.1-3.8-14.2-6.3-8.7-3.1-14.8-6.7-18.2-10.8-3.4-4-5.1-9-5.1-14.9 0-8.2 3.1-14.7 9.2-19.5 6.2-4.8 14.6-7.2 25.3-7.2 6.7 0 13.3.9 19.8 2.6v18.6c-6.4-3.2-12.8-4.8-19.2-4.8-3.9 0-7 .7-9.2 2.1-2.2 1.4-3.3 3.3-3.3 5.8 0 2.5 1 4.6 3.1 6.2 2.1 1.7 6.3 3.6 12.6 5.7 9.4 3.2 16 7 19.8 11.2 3.8 4.2 5.7 9.6 5.7 16.2 0 8.6-3.1 15.3-9.4 20.2-6.2 4.9-14.9 7.3-26 7.3-8 0-15.8-1.4-23.4-4.2z"/>
  <path fill="#fff" d="M46.7 128.2v-15.7h63.8v15.7H86.6v71.7H70.5v-71.7z"/>
</svg>
