<svg xmlns="http://www.w3.org/2000/svg" viewBox="0 0 64 64" fill="none">
  <!-- Douyin/TikTok-like official mark: black note with cyan/red offsets -->
  <path
    d="M40.5 12c1.1 0 2 .9 2 2 0 7.2 5.8 13 13 13 1.1 0 2 .9 2 2v4.2c0 1.1-.9 2-2 2-5.4 0-10.5-2-14.5-5.5V40c0 9.1-7.4 16.5-16.5 16.5S8 49.1 8 40s7.4-16.5 16.5-16.5c2.2 0 4.3.4 6.2 1.2V14c0-1.1.9-2 2-2h7.8Z"
    fill="#25F4EE"
    opacity="0.95"
    transform="translate(-1.4,1.4)"
  />
  <path
    d="M40.5 12c1.1 0 2 .9 2 2 0 7.2 5.8 13 13 13 1.1 0 2 .9 2 2v4.2c0 1.1-.9 2-2 2-5.4 0-10.5-2-14.5-5.5V40c0 9.1-7.4 16.5-16.5 16.5S8 49.1 8 40s7.4-16.5 16.5-16.5c2.2 0 4.3.4 6.2 1.2V14c0-1.1.9-2 2-2h7.8Z"
    fill="#FE2C55"
    opacity="0.95"
    transform="translate(1.4,-1.4)"
  />
  <path
    d="M40.5 12c1.1 0 2 .9 2 2 0 7.2 5.8 13 13 13 1.1 0 2 .9 2 2v4.2c0 1.1-.9 2-2 2-5.4 0-10.5-2-14.5-5.5V40c0 9.1-7.4 16.5-16.5 16.5S8 49.1 8 40s7.4-16.5 16.5-16.5c2.2 0 4.3.4 6.2 1.2V14c0-1.1.9-2 2-2h7.8Z"
    fill="#0b0b0f"
  />
</svg>
