<svg xmlns="http://www.w3.org/2000/svg" viewBox="0 0 98 96" fill="none">
  <path
    fill="#ffffff"
    d="M49 0C21.9 0 0 22.4 0 50.1c0 22.2 14 41 33.4 47.6 2.4.5 3.3-1.1 3.3-2.5 0-1.2-.1-5.2-.1-9.4-13.6 3-16.5-5.9-16.5-5.9-2.2-5.8-5.5-7.3-5.5-7.3-4.5-3.1.3-3.1.3-3.1 5 .4 7.6 5.2 7.6 5.2 4.4 7.7 11.6 5.5 14.4 4.2.4-3.3 1.7-5.5 3.1-6.7-10.9-1.3-22.4-5.6-22.4-24.8 0-5.5 1.9-10 5.1-13.5-.5-1.3-2.2-6.4.5-13.3 0 0 4.2-1.4 13.7 5.2 4-1.1 8.3-1.7 12.6-1.7 4.3 0 8.6.6 12.6 1.7 9.5-6.6 13.7-5.2 13.7-5.2 2.7 6.9 1 12 .5 13.3 3.2 3.5 5.1 8 5.1 13.5 0 19.3-11.6 23.5-22.6 24.7 1.8 1.6 3.4 4.8 3.4 9.7 0 7-.1 12.7-.1 14.4 0 1.4.9 3 3.3 2.5C84 91.1 98 72.2 98 50.1 98 22.4 76.1 0 49 0Z"
  />
</svg>
