<svg xmlns="http://www.w3.org/2000/svg" viewBox="0 0 64 64" fill="none">
  <path
    d="M44.2 28.4c9 0 16.3 6 16.3 13.4 0 7.4-7.3 13.4-16.3 13.4-1.9 0-3.7-.3-5.4-.8l-6.6 3.2c-.8.4-1.6-.3-1.4-1.2l1.2-5.2c-2.7-2.4-4.3-5.7-4.3-9.4 0-7.4 7.3-13.4 16.5-13.4Z"
    fill="#22c55e"
    opacity="0.95"
  />
  <path
    d="M24.8 6C12.2 6 2 14.6 2 25.2c0 5.4 2.8 10.3 7.3 13.7l-1.8 7.1c-.2.9.7 1.6 1.5 1.1l8.8-4.3c2.2.7 4.6 1.1 7 1.1 12.6 0 22.8-8.6 22.8-19.2C47.6 14.6 37.4 6 24.8 6Z"
    fill="#16a34a"
  />
  <circle cx="17.6" cy="23.4" r="2.6" fill="#ffffff" opacity="0.95"/>
  <circle cx="27.6" cy="23.4" r="2.6" fill="#ffffff" opacity="0.95"/>
  <circle cx="39.7" cy="40.8" r="2.3" fill="#ffffff" opacity="0.95"/>
  <circle cx="48.3" cy="40.8" r="2.3" fill="#ffffff" opacity="0.95"/>
</svg>
