<svg xmlns="http://www.w3.org/2000/svg" viewBox="0 0 64 64" fill="none">
  <!-- colored Weibo-style mark (optimized for dark backgrounds) -->
  <defs>
    <linearGradient id="wbGrad" x1="18" y1="22" x2="46" y2="46" gradientUnits="userSpaceOnUse">
      <stop stop-color="#ff6a00"/>
      <stop offset="1" stop-color="#ff2d2d"/>
    </linearGradient>
  </defs>

  <!-- body -->
  <path
    d="M32 14c-11.9 0-21.5 7.3-21.5 16.4S20.1 46.8 32 46.8 53.5 39.5 53.5 30.4C53.5 21.3 43.9 14 32 14Z"
    fill="url(#wbGrad)"
  />
  <!-- face highlight -->
  <path
    d="M33.7 48.9c-10.9 2.7-20.9-.9-22.3-7.9-1.4-7 6.2-14.9 17.1-17.6 10.9-2.7 20.9.9 22.3 7.9 1.4 7-6.2 14.9-17.1 17.6Z"
    fill="#fff"
    opacity="0.22"
  />
  <!-- eye -->
  <path
    d="M25.9 28.4c-3.8 0-6.8 2.3-6.8 5.2s3.1 5.2 6.8 5.2 6.8-2.3 6.8-5.2-3.1-5.2-6.8-5.2Z"
    fill="#0b1220"
    opacity="0.65"
  />

  <!-- broadcast waves -->
  <path
    d="M45.1 17.1c6.5 2.7 10.9 8.1 11.2 14.4.1 1.1-.8 2-1.9 2h-2.8c-1 0-1.8-.7-1.9-1.7-.3-4.7-3.6-8.7-8.6-10.8-1-.4-1.4-1.5-1-2.5l1-2.4c.4-1 1.6-1.5 2.6-1Z"
    fill="#ff6a00"
  />
  <circle cx="52.6" cy="17.7" r="2.2" fill="#ff2d2d"/>
  <circle cx="58" cy="22.4" r="1.5" fill="#ff6a00"/>
</svg>
